Motion_kv01_l
version=1
nRows=15
nColumns=43
inDegrees=yes
endheader
time	pelvis_tilt	pelvis_list	pelvis_rotation	pelvis_tx	pelvis_ty	pelvis_tz	hip_flexion_r	hip_adduction_r	hip_rotation_r	knee_angle_r	ankle_angle_r	subtalar_angle_r	mtp_angle_r	hip_flexion_l	hip_adduction_l	hip_rotation_l	knee_angle_l	ankle_angle_l	subtalar_angle_l	mtp_angle_l	lumbar_extension	lumbar_bending	lumbar_rotation	neck_flexion	neck_lateral_bending	neck_rotation	arm_flex_r	arm_add_r	arm_rot_r	elbow_flex_r	pro_sup_r	wrist_flex_r	wrist_dev_r	hand_finger_flex_r	arm_flex_l	arm_add_l	arm_rot_l	elbow_flex_l	pro_sup_l	wrist_flex_l	wrist_dev_l	hand_finger_flex_l
      0.00250000	      2.15508969	    -26.86980963	     96.25845379	      0.00882323	      0.73681110	      1.90285093	     64.79471753	     -7.00151091	     -5.49286371	    -81.35522344	     37.89150635	      2.29307401	     -0.53649865	     65.35366744	     -1.87805525	     -1.91743580	    -80.02618168	     42.01612633	     -1.14196061	    -11.60649572	    -20.53861229	      0.66589565	     -4.54337622	     40.88575628	      2.31255022	     -1.07932449	    119.10791646	    -40.22115920	     47.52349714	     61.18017058	    136.29682438	     20.15256176	    -17.02354450	     -3.24547114	    130.08617046	    -33.84786954	     74.63731327	     54.17707180	    121.82555749	    -32.88621666	     -5.64446248	     55.89409832
      0.00500000	      2.21053661	    -26.95583699	     96.20465332	      0.00881315	      0.73493882	      1.90174204	     65.05674281	     -6.91575711	     -5.40667104	    -81.83108143	     37.80328844	      2.33577552	     -0.54427458	     65.58527293	     -1.92110946	     -1.84165238	    -80.50189847	     42.39268688	     -1.18668742	    -11.54882836	    -20.54015718	      0.69855617	     -4.50771521	     41.13691078	      2.47607055	     -1.13662628	    119.64387968	    -39.99866247	     47.89850383	     60.63390578	    136.39049264	     20.56287879	    -16.82117674	     -3.08387634	    130.42131096	    -33.75078080	     74.88676009	     53.78077309	    121.72104562	    -32.60401257	     -5.65404799	     55.98166741
      0.00750000	      2.27272066	    -27.09935816	     96.14229204	      0.00885198	      0.73273154	      1.90085430	     65.43984728	     -6.83941329	     -5.33482708	    -82.37833754	     37.85169276	      2.43545327	     -0.51122679	     65.91612570	     -2.01603342	     -1.79794457	    -80.97783604	     42.48310785	     -1.08728800	    -11.49974955	    -20.49098022	      0.78845541	     -4.45742991	     41.30144446	      2.41360278	     -1.04021844	    120.60330457	    -39.68625890	     48.69473880	     59.93011146	    136.26030720	     21.63450781	    -16.87662862	     -2.61041789	    131.02465947	    -33.76550295	     75.58903170	     53.41526367	    121.55453726	    -31.98569764	     -5.87060454	     56.19620333
      0.01000000	      2.34566354	    -27.21012924	     96.12889853	      0.00861259	      0.73070229	      1.89970440	     65.70081388	     -6.83437362	     -5.30893845	    -82.82944002	     37.85076648	      2.59005595	     -0.43921763	     66.24152382	     -2.05157807	     -1.73117945	    -81.58290415	     42.59129895	     -1.07778160	    -11.40788104	    -20.46528677	      0.95473546	     -4.48606085	     41.51048977	      2.19968270	     -0.90415430	    121.53901057	    -39.35808162	     49.53653068	     59.26058553	    135.79121453	     22.79506153	    -17.11229528	     -2.05022217	    131.59986340	    -34.06054550	     76.30587814	     53.39606141	    121.10004698	    -31.37361346	     -6.26313139	     56.37185338
      0.01250000	      2.44472575	    -27.26612027	     96.15742082	      0.00855618	      0.72881431	      1.89870135	     65.92704305	     -6.80270585	     -5.31811851	    -83.31784513	     37.90198699	      2.72272499	     -0.31950917	     66.48855699	     -2.08067870	     -1.60168064	    -82.06798511	     42.65710160	     -1.10150274	    -11.28635321	    -20.51514253	      1.13762004	     -4.56960344	     41.71440446	      2.03609028	     -0.75224410	    122.40335436	    -38.91464210	     50.26062543	     58.49024987	    135.37302878	     23.62636952	    -17.14635703	     -1.55517964	    132.16585873	    -34.29585593	     76.92099507	     53.24818539	    120.56783924	    -30.84835391	     -6.54563871	     56.46388127
      0.01500000	      2.47931499	    -27.32071397	     96.15027778	      0.00844654	      0.72722590	      1.89759361	     66.09951833	     -6.76884155	     -5.26006377	    -83.70606679	     37.98765340	      2.75898028	     -0.26330791	     66.67061506	     -2.05667798	     -1.51912066	    -82.48647648	     42.77689889	     -1.13503646	    -11.22832383	    -20.58368406	      1.19745122	     -4.58748913	     42.14311204	      2.07151147	     -0.73977330	    122.85406749	    -38.67483927	     50.46823177	     57.96676788	    135.32503109	     23.90982595	    -17.04766784	     -1.36111008	    132.47068030	    -34.28490934	     77.09788549	     52.95495169	    120.42123363	    -30.63511333	     -6.56958805	     56.49913267
      0.01750000	      2.56112951	    -27.39867323	     96.13895020	      0.00828466	      0.72522541	      1.89647831	     66.34101131	     -6.75272199	     -5.25224180	    -84.18934777	     38.00999497	      2.95244814	     -0.09072123	     66.94077275	     -2.10538578	     -1.42686192	    -83.01377363	     42.80614568	     -1.14192044	    -11.06555076	    -20.58920403	      1.38705501	     -4.63636826	     42.20367899	      1.84310763	     -0.54346328	    123.86473911	    -38.25164596	     51.44466065	     57.20874253	    134.81369740	     25.10149307	    -17.28549310	     -0.56584938	    133.13479446	    -34.62986795	     78.00220485	     52.96040650	    119.84328769	    -29.77133223	     -6.95351154	     56.73489579
      0.02000000	      2.64920841	    -27.45050831	     96.14853737	      0.00809936	      0.72348295	      1.89543095	     66.52716047	     -6.72157518	     -5.23826470	    -84.60483366	     38.06282849	      3.05505902	      0.11208145	     67.16209255	     -2.11599957	     -1.29825881	    -83.48665864	     42.85918538	     -1.18669958	    -10.87167053	    -20.64375808	      1.56689020	     -4.70470677	     42.47615935	      1.73966794	     -0.41813530	    124.65691413	    -37.79619658	     52.16207198	     56.42716649	    134.38527161	     25.74324910	    -17.27757418	      0.07970575	    133.65689009	    -34.88266347	     78.59696227	     52.85723577	    119.11554632	    -29.07465366	     -7.16433309	     56.85473713
      0.02250000	      2.71920730	    -27.50793056	     96.14232499	      0.00797333	      0.72179371	      1.89428081	     66.70193071	     -6.68494111	     -5.21975404	    -85.00372398	     38.12537092	      3.13576075	      0.32892788	     67.36621530	     -2.12502591	     -1.18339203	    -83.94053450	     42.90473867	     -1.22350262	    -10.66354952	    -20.68890506	      1.70623031	     -4.74362126	     42.74576916	      1.64347323	     -0.30331754	    125.36080238	    -37.45017797	     52.82515334	     55.77662981	    133.96654670	     26.29510798	    -17.28453682	      0.76165691	    134.14733482	    -35.11256250	     79.17888230	     52.79604597	    118.40748584	    -28.34332721	     -7.32356127	     56.98659748
      0.02500000	      2.77703664	    -27.56399243	     96.12282763	      0.00785918	      0.72012017	      1.89309640	     66.86800613	     -6.64314150	     -5.19008507	    -85.39149275	     38.18571006	      3.20346275	      0.55985506	     67.56063026	     -2.13223195	     -1.07799890	    -84.39114749	     42.94013737	     -1.26578255	    -10.43782024	    -20.73437984	      1.82647779	     -4.76864311	     42.98216803	      1.56235170	     -0.20382401	    126.04827688	    -37.12671642	     53.50338052	     55.14461363	    133.53830498	     26.82890826	    -17.28830956	      1.51814618	    134.61387353	    -35.33387905	     79.73590551	     52.74939307	    117.62439099	    -27.50881494	     -7.45346842	     57.15398604
      0.02750000	      2.82950529	    -27.62027458	     96.09765300	      0.00776247	      0.71848841	      1.89187958	     67.02459149	     -6.59683494	     -5.15650144	    -85.76401909	     38.25674261	      3.25697744	      0.79806304	     67.74716185	     -2.14390035	     -0.97717473	    -84.83310576	     42.97163729	     -1.31160853	    -10.19949669	    -20.77632904	      1.93184665	     -4.78480157	     43.22879983	      1.49374265	     -0.11391207	    126.70979690	    -36.83571055	     54.19021104	     54.54090798	    133.09758158	     27.31926640	    -17.28718936	      2.32561502	    135.05734332	    -35.55116297	     80.25755702	     52.72979916	    116.76562589	    -26.57501679	     -7.55844297	     57.35234821
      0.03000000	      2.87815986	    -27.68078943	     96.06159405	      0.00766555	      0.71688345	      1.89067666	     67.17305372	     -6.54557136	     -5.12599522	    -86.10673150	     38.32250308	      3.29784856	      1.06580848	     67.92885906	     -2.13860580	     -0.85211093	    -85.25919807	     42.99504746	     -1.35760123	     -9.92135815	    -20.83023417	      2.03743817	     -4.79536656	     43.47055076	      1.40435664	     -0.01997252	    127.38927843	    -36.55627882	     54.90954431	     53.97470792	    132.55873075	     27.72762087	    -17.29201879	      3.24384608	    135.51822696	    -35.80513565	     80.76328731	     52.75559405	    115.73315584	    -25.48719786	     -7.63260504	     57.56573050
      0.03250000	      2.92118940	    -27.72581662	     96.03078367	      0.00760720	      0.71532550	      1.88936022	     67.29852846	     -6.49603747	     -5.09872534	    -86.46491886	     38.40769967	      3.32046981	      1.31666599	     68.08858707	     -2.15450419	     -0.75912544	    -85.69120812	     43.01881864	     -1.40405856	     -9.65344491	    -20.87259350	      2.12516175	     -4.79160821	     43.68256122	      1.36078542	      0.05650800	    128.00078321	    -36.32422156	     55.64055220	     53.43520429	    132.06288904	     28.09528033	    -17.26900790	      4.15955452	    135.90579188	    -36.02602677	     81.24829829	     52.78957756	    114.74537304	    -24.36791925	     -7.65136776	     57.79047267
      0.03500000	      2.96327301	    -27.78109706	     95.99277942	      0.00749587	      0.71380861	      1.88802621	     67.42210535	     -6.44613746	     -5.06718600	    -86.79990258	     38.49331485	      3.33811652	      1.56119047	     68.24216122	     -2.16257182	     -0.66771803	    -86.09888144	     43.04213787	     -1.44660234	     -9.38172711	    -20.91357951	      2.21220726	     -4.77868491	     43.92538536	      1.30930398	      0.12315112	    128.61411597	    -36.11752546	     56.39751680	     52.92625154	    131.51205463	     28.45159180	    -17.27559827	      5.12037295	    136.28867635	    -36.26946893	     81.69261347	     52.86836204	    113.67038883	    -23.11698942	     -7.63667387	     58.05806497
      0.03750000	      2.93710248	    -27.77777817	     95.94504916	      0.00744896	      0.71255114	      1.88633817	     67.43461653	     -6.44255452	     -5.03931372	    -87.11508905	     38.54248743	      3.31727325	      1.58150243	     68.27494156	     -2.11046511	     -0.55490969	    -86.48906534	     43.08778350	     -1.46983110	     -9.35931112	    -20.95993414	      2.18551387	     -4.73644478	     44.05012863	      1.35109135	      0.11242540	    128.67879340	    -36.15566095	     56.44475046	     52.80767500	    131.50237659	     28.48522851	    -17.24331522	      5.18735735	    136.27191689	    -36.35620870	     81.73651036	     52.84284942	    113.59632205	    -23.01225575	     -7.62804181	     58.08932304
